<svg xmlns="http://www.w3.org/2000/svg" width="256" height="256" viewBox="0 0 256 256">
  <defs>
    <linearGradient id="grad" x1="0%" y1="0%" x2="100%" y2="100%">
      <stop offset="0%" style="stop-color:#2563eb;stop-opacity:1" />
      <stop offset="100%" style="stop-color:#0891b2;stop-opacity:1" />
    </linearGradient>
  </defs>
  
  <!-- Background -->
  <rect width="256" height="256" rx="48" fill="url(#grad)"/>
  
  <!-- Calculator/Document Design -->
  <!-- Top bar (like a document header) -->
  <rect x="50" y="50" width="156" height="12" rx="4" fill="white" opacity="0.9"/>
  
  <!-- Main calculator body -->
  <rect x="50" y="70" width="156" height="136" rx="8" fill="white" opacity="0.95"/>
  
  <!-- Display screen -->
  <rect x="60" y="80" width="136" height="32" rx="4" fill="#1e40af" opacity="0.15"/>
  
  <!-- Calculator buttons grid -->
  <!-- Row 1 -->
  <rect x="60" y="122" width="30" height="24" rx="4" fill="#2563eb" opacity="0.8"/>
  <rect x="98" y="122" width="30" height="24" rx="4" fill="#2563eb" opacity="0.8"/>
  <rect x="136" y="122" width="30" height="24" rx="4" fill="#2563eb" opacity="0.8"/>
  <rect x="174" y="122" width="16" height="24" rx="4" fill="#0891b2" opacity="0.8"/>
  
  <!-- Row 2 -->
  <rect x="60" y="152" width="30" height="24" rx="4" fill="#2563eb" opacity="0.8"/>
  <rect x="98" y="152" width="30" height="24" rx="4" fill="#2563eb" opacity="0.8"/>
  <rect x="136" y="152" width="30" height="24" rx="4" fill="#2563eb" opacity="0.8"/>
  <rect x="174" y="152" width="16" height="24" rx="4" fill="#0891b2" opacity="0.8"/>
  
  <!-- Row 3 -->
  <rect x="60" y="182" width="30" height="24" rx="4" fill="#2563eb" opacity="0.8"/>
  <rect x="98" y="182" width="30" height="24" rx="4" fill="#2563eb" opacity="0.8"/>
  <rect x="136" y="182" width="30" height="24" rx="4" fill="#2563eb" opacity="0.8"/>
  <rect x="174" y="182" width="16" height="24" rx="4" fill="#0891b2" opacity="0.8"/>
  
  <!-- Currency symbol overlay -->
  <text x="128" y="175" font-family="Arial, sans-serif" font-size="80" font-weight="bold" text-anchor="middle" fill="white" opacity="0.25">₺</text>
</svg>
